<?xml version="1.0" encoding="utf-8"?>
<!-- Generator: Adobe Illustrator 20.0.0, SVG Export Plug-In . SVG Version: 6.00 Build 0)  -->
<svg version="1.1" id="Layer_1" xmlns="http://www.w3.org/2000/svg" xmlns:xlink="http://www.w3.org/1999/xlink" x="0px" y="0px"
	 viewBox="0 0 713 713" style="enable-background:new 0 0 713 713;" xml:space="preserve">
<style type="text/css">
	.st0{display:none;}
	.st1{display:inline;fill:#FF0000;}
	.st2{display:none;fill:none;stroke:#419798;stroke-width:21;stroke-miterlimit:10;}
	.st3{fill:#0F5C83;}
</style>
<g class="st0">
	<path class="st1" d="M-461,346.5c40,0,56,7.6,57.5,14.1c0.9,3.7-2.3,9.1-8.8,15.2c-11.9,11-34.4,23.6-63.4,35.5
		c-29.6,12.2-65,23.2-102.2,32.1c-50,11.8-98.1,18.4-135.4,18.4c-40,0-56-7.6-57.5-14.1c-1.5-6.5,9.3-20.4,44.8-38.3
		c33.4-16.8,79.4-32.6,129.6-44.4C-546.4,353-498.3,346.5-461,346.5 M-461,340.5c-36.2,0-84.6,6.2-136.8,18.5
		c-104.7,24.8-184.7,65-178.9,89.9c3,12.5,27,18.7,63.4,18.7c36.2,0,84.6-6.2,136.8-18.5c38.8-9.2,74.2-20.5,103.1-32.3
		c29.7-12.2,52.6-25,65.2-36.6c8.2-7.6,12.1-14.8,10.6-20.9C-400.6,346.8-424.6,340.5-461,340.5L-461,340.5z"/>
</g>
<path class="st2" d="M112.3,676c-20.3,0-39.4-8-53.9-22.5S36,619.9,36,599.7V112.3c0-20.3,8-39.4,22.5-53.9S92.1,36,112.3,36h487.3
	c20.3,0,39.4,8,53.9,22.5S676,92.1,676,112.3v487.3c0,20.3-8,39.4-22.5,53.9S619.9,676,599.7,676H112.3z"/>
<path class="st3" d="M590.1,518.4c-37.7,8.5-55.9-17-126.5-47.6c-52-22.5-75.2-59.3-83.8-77.1c12.3-35.6,31.7-71.5,45.5-94.9
	c7.6-12.8,16.2-24.9,25.5-36.5c30.7-38,29.4-81.2,29.4-81.2l0,0c0-66.3-53.8-120.1-120.1-120.1c0,0,0,0,0,0c0,0,0,0,0,0
	C293.8,61,240,114.8,240,181.1l0,0c0,0-1.3,43.2,29.4,81.2c9.3,11.6,18,23.7,25.5,36.5c13.9,23.5,33.4,59.6,45.7,95.3l-0.7,0.1
	c-11.3,39.6-70.6,71.3-79.5,72.6c-53.3-0.9-65.6,17.6-69.4,21.8c-3.8,4.3-2.1,16.2,0.9,10c14.7-25.4,47.4-20.8,64.4-21.3
	c-33.8,51.3-60,53-70.3,54.4c-10.3,1.4-18.2-2.6-17.1,0.6c6.5,7.1,19.4,4.5,33.8,4.8c-7.1,6.8-7.4,15.3-11.2,23.8
	c-3.8,8.5-10.6,12.8-17.7,17.6c-7.1,4.8-11.5,4.3-7.7,7.1c9.1,1.4,18.8-6.8,30.6-21.3c16.8-33.4,41.2-47.6,47.6-55.3
	c-0.7,4.8,1.3,7.4,5.7,16.2c10.3,20.7-10.3,46.8-4.7,41.4c25.3-24.4,10-45.3,9.1-57.8c5.3-36.8,75.9-59.5,84.7-64.6
	c8.8-5.1,6.2,15,6.2,38c0,23-45.6,72-51.2,74.8c-43.7,17.8-41.5,28.3-41.5,38.8c10.6-21.5,45.6-30.9,45.9-29.5
	c0.3,1.4,2.1,7.4-1.8,14.2c-13.5,29.5-8.5,39.4-7.7,46.5c0.9,7.1,12.9,12.2,7.4,2.8c-5.6-9.4-2.4-24.9,4.4-36.6
	c6.8-11.6,6.5-18.4,6.8-28.6c0.3-10.2,25.3-32.6,30.3-37.7c-0.3,7.1,0,21-0.9,33.2c-0.9,12.2,20.9,25.2,24.1,32.9
	c0.9-9.9-8.5-23.2-13.5-31.2c-5-7.9,4.7-50.2,11.2-70c0,16.7,30.3,50.4,44.1,75.7c13.8,25.2-1.5,57.8-5.3,65.7
	c12.9-5.4,17.4-24.1,18.8-31.5c12.1,11.1,12.1,26.9,14.7,39.1c2.6,12.2,18.5,12.8,14.4,9.4c-4.1-3.4-8.5-11.3-10.6-28.9
	c-2.1-17.6-13.2-27.5-16.8-32c-3.5-4.5-3.2-19.6-3.5-27.2c36.5,5.1,64.2,36.6,70.3,45.3c-0.6-18.7-15.6-29.8-28.8-38.3
	c-13.2-8.5-41.5-24.9-59.1-47.9c-17.7-23-13.8-65.5-13.8-65.5s0,0,6.2,1.4c47.4,13.6,50.9,66.6,52.4,74c1.5,7.4,20,16.4,12.1,6.8
	c-7.9-9.6-7.9-49.9-7.7-53.8c0.3-4,32.4,10.2,45.3,18.4c12.9,8.2,20.6,26.9,5.9,43.6c-14.7,16.7,10.3,44.2,5.3,29.8
	c-5-14.5,12.1-40.2,12.7-35.4c0.6,4.8,15,15,29.4,23c14.4,7.9,19.4,20.4,21.8,26.9c1.8-5.1,7.1-22.1-20.3-36
	c-27.4-13.9-29.4-38.5-35-45.9C548.3,536.2,585.4,524.3,590.1,518.4z M318.5,181.7c-0.8-24.1,18.9-43.7,43-43
	c21.8,0.7,39.5,18.4,40.2,40.2c0.8,24.1-18.9,43.7-43,43C336.9,221.2,319.2,203.5,318.5,181.7z"/>
</svg>
